<?xml version="1.0" encoding="UTF-8" standalone="no"?><!DOCTYPE svg PUBLIC "-//W3C//DTD SVG 1.1//EN" "http://www.w3.org/Graphics/SVG/1.1/DTD/svg11.dtd"><svg width="100%" height="100%" viewBox="0 0 1022 1022" version="1.1" xmlns="http://www.w3.org/2000/svg" xmlns:xlink="http://www.w3.org/1999/xlink" xml:space="preserve" xmlns:serif="http://www.serif.com/" style="fill-rule:evenodd;clip-rule:evenodd;stroke-linejoin:round;stroke-miterlimit:2;"><g id="Layer-1" serif:id="Layer 1"><path d="M538.624,641.503c0,14.04 -4.371,25.501 -13.106,34.377c-8.743,8.884 -20.129,13.321 -34.163,13.321l-169.308,0c-14.039,0 -25.568,-4.437 -34.591,-13.321c-9.025,-8.876 -13.537,-20.337 -13.537,-34.377l0,-170.597l59.731,0l0,165.44l145.244,0l0,-160.284l-185.638,-224.311c-12.891,-15.47 -19.337,-32.511 -19.337,-51.137l0,-136.219c0,-14.033 4.512,-25.495 13.537,-34.377c9.023,-8.877 20.552,-13.322 34.591,-13.322l169.308,0c14.034,0 25.42,4.445 34.163,13.322c8.735,8.882 13.106,20.344 13.106,34.377l0,156.416l-59.73,0l0,-151.26l-145.244,0l0,141.806l186.496,224.312c12.315,14.899 18.478,31.658 18.478,50.277l0,155.557Z" style="fill:#387fa9;fill-rule:nonzero;stroke:#000;stroke-width:7.44px;"/><path d="M753.914,954.831c0,14.039 -4.445,25.501 -13.321,34.377c-8.883,8.883 -20.345,13.321 -34.377,13.321l-176.614,0c-14.04,0 -25.5,-4.438 -34.377,-13.321c-8.883,-8.876 -13.321,-20.338 -13.321,-34.377l0,-577.108c0,-14.033 4.438,-25.495 13.321,-34.377c8.877,-8.877 20.337,-13.322 34.377,-13.322l176.614,0c14.032,0 25.494,4.445 34.377,13.322c8.876,8.882 13.321,20.344 13.321,34.377l0,156.416l-60.16,0l0,-151.26l-152.119,0l0,566.795l152.119,0l0,-232.476l-71.763,0l0,-51.565l131.923,0l0,289.198Z" style="fill:#387fa9;fill-rule:nonzero;stroke:#000;stroke-width:7.44px;"/><path d="M359.227,464.613c0,32.078 -26.005,58.083 -58.084,58.083c-32.079,0 -58.084,-26.005 -58.084,-58.083c0,-32.079 26.005,-58.084 58.084,-58.084c32.079,0 58.084,26.005 58.084,58.084" style="fill:#387fa9;fill-rule:nonzero;stroke:#000;stroke-width:7.44px;"/><path d="M565.16,216.436c0,32.079 -26.005,58.083 -58.084,58.083c-32.079,0 -58.083,-26.004 -58.083,-58.083c0,-32.079 26.004,-58.084 58.083,-58.084c32.079,0 58.084,26.005 58.084,58.084" style="fill:#387fa9;fill-rule:nonzero;stroke:#000;stroke-width:7.44px;"/><path d="M779.895,522.696c0,32.078 -26.006,58.084 -58.084,58.084c-32.079,0 -58.084,-26.006 -58.084,-58.084c0,-32.079 26.005,-58.084 58.084,-58.084c32.078,0 58.084,26.005 58.084,58.084" style="fill:#387fa9;fill-rule:nonzero;stroke:#000;stroke-width:7.44px;"/></g></svg>