<?xml version="1.0" encoding="UTF-8" standalone="no"?><!DOCTYPE svg PUBLIC "-//W3C//DTD SVG 1.1//EN" "http://www.w3.org/Graphics/SVG/1.1/DTD/svg11.dtd"><svg width="100%" height="100%" viewBox="0 0 100 100" version="1.1" xmlns="http://www.w3.org/2000/svg" xmlns:xlink="http://www.w3.org/1999/xlink" xml:space="preserve" xmlns:serif="http://www.serif.com/" style="fill-rule:evenodd;clip-rule:evenodd;stroke-linejoin:round;stroke-miterlimit:2;"><path d="M74.346,91.479l-7.492,6.406l-14.309,-47.365l44.567,21.492l-7.3,6.242c0.264,0.742 0.451,1.525 0.55,2.34c0.726,5.968 -3.53,11.403 -9.498,12.129c-2.338,0.285 -4.595,-0.196 -6.518,-1.244Z" style="fill:#26445f;"/><circle cx="49.922" cy="47.884" r="1.332" style="fill:#26445f;"/><circle cx="45.533" cy="43.339" r="1.332" style="fill:#26445f;"/><circle cx="40.831" cy="38.95" r="1.332" style="fill:#26445f;"/><circle cx="35.912" cy="33.875" r="1.332" style="fill:#26445f;"/><ellipse cx="4.017" cy="3.003" rx="37.519" ry="35.712" style="fill:#26445f;"/><g id="code"><g transform="matrix(1.0099,0,0,1.0099,-0.140317,-81.4302)"><text x="0.508px" y="96.442px" style="font-family:'ArialMT', 'Arial', sans-serif;font-size:20px;fill:#26445f;">01000101<tspan x="88.008px " y="96.442px ">1</tspan></text><text x="0.508px" y="117.096px" style="font-family:'ArialMT', 'Arial', sans-serif;font-size:20px;fill:#26445f;">1000101<tspan x="76.885px 88.008px " y="117.096px 117.096px ">10</tspan></text><text x="0.508px" y="137.751px" style="font-family:'ArialMT', 'Arial', sans-serif;font-size:20px;fill:#26445f;">001001001</text><text x="0.508px" y="158.405px" style="font-family:'ArialMT', 'Arial', sans-serif;font-size:20px;fill:#26445f;">000101<tspan x="65.762px 75.401px 86.524px " y="158.405px 158.405px 158.405px ">110</tspan></text><text x="0.508px" y="179.059px" style="font-family:'ArialMT', 'Arial', sans-serif;font-size:20px;fill:#26445f;">1<tspan x="10.147px 21.27px " y="179.059px 179.059px ">10</tspan>010001</text></g></g></svg>