<?xml version="1.0" encoding="UTF-8" standalone="no"?><!DOCTYPE svg PUBLIC "-//W3C//DTD SVG 1.1//EN" "http://www.w3.org/Graphics/SVG/1.1/DTD/svg11.dtd"><svg width="100%" height="100%" viewBox="0 0 100 100" version="1.1" xmlns="http://www.w3.org/2000/svg" xmlns:xlink="http://www.w3.org/1999/xlink" xml:space="preserve" xmlns:serif="http://www.serif.com/" style="fill-rule:evenodd;clip-rule:evenodd;stroke-linejoin:round;stroke-miterlimit:2;"><clipPath id="_clip1"><path d="M90.92,0.977l-29.035,126.029l-81.879,-59.511l110.914,-66.518Z"/></clipPath><g clip-path="url(#_clip1)"><path d="M81.646,41.233c3.234,5.664 5.082,12.221 5.082,19.205c0,21.427 -17.397,38.823 -38.824,38.823c-21.427,0 -38.824,-17.396 -38.824,-38.823c0,-3.927 0.585,-7.718 1.671,-11.292l-0.068,-0.049l0.102,-0.061c4.875,-15.871 19.659,-27.422 37.119,-27.422c2.538,0 5.018,0.244 7.421,0.71l35.595,-21.347l-9.274,40.256Zm-36.728,34.03c3.178,0 5.759,2.581 5.759,5.76c0,3.179 -2.581,5.759 -5.759,5.759c-3.179,0 -5.76,-2.58 -5.76,-5.759c0,-3.179 2.581,-5.76 5.76,-5.76Zm16.852,-12.159c3.178,0 5.759,2.581 5.759,5.76c0,3.179 -2.581,5.759 -5.759,5.759c-3.179,0 -5.76,-2.58 -5.76,-5.759c0,-3.179 2.581,-5.76 5.76,-5.76Zm-37.331,-9.172c3.179,0 5.76,2.58 5.76,5.759c0,3.179 -2.581,5.76 -5.76,5.76c-3.179,0 -5.759,-2.581 -5.759,-5.76c0,-3.179 2.58,-5.759 5.759,-5.759Zm19.199,-0.427c3.179,0 5.759,2.581 5.759,5.76c0,3.178 -2.58,5.759 -5.759,5.759c-3.179,0 -5.76,-2.581 -5.76,-5.759c0,-3.179 2.581,-5.76 5.76,-5.76Zm23.678,-15.359c3.179,0 5.76,2.581 5.76,5.76c0,3.179 -2.581,5.759 -5.76,5.759c-3.179,0 -5.76,-2.58 -5.76,-5.759c0,-3.179 2.581,-5.76 5.76,-5.76Zm-19.625,-2.133c3.179,0 5.759,2.581 5.759,5.76c0,3.178 -2.58,5.759 -5.759,5.759c-3.179,0 -5.76,-2.581 -5.76,-5.759c0,-3.179 2.581,-5.76 5.76,-5.76Zm26.024,-17.705c3.179,0 5.76,2.58 5.76,5.759c0,3.179 -2.581,5.76 -5.76,5.76c-3.178,0 -5.759,-2.581 -5.759,-5.76c0,-3.179 2.581,-5.759 5.759,-5.759Z" style="fill:#26445f;"/></g><g id="code"><g transform="matrix(1.0099,0,0,1.0099,-0.140317,-81.4302)"><text x="0.508px" y="96.442px" style="font-family:'ArialMT', 'Arial', sans-serif;font-size:20px;fill:#26445f;">01000101<tspan x="88.008px " y="96.442px ">1</tspan></text><text x="0.508px" y="117.096px" style="font-family:'ArialMT', 'Arial', sans-serif;font-size:20px;fill:#26445f;">1000101<tspan x="76.885px 88.008px " y="117.096px 117.096px ">10</tspan></text><text x="0.508px" y="137.751px" style="font-family:'ArialMT', 'Arial', sans-serif;font-size:20px;fill:#26445f;">001001001</text><text x="0.508px" y="158.405px" style="font-family:'ArialMT', 'Arial', sans-serif;font-size:20px;fill:#26445f;">000101<tspan x="65.762px 75.401px 86.524px " y="158.405px 158.405px 158.405px ">110</tspan></text><text x="0.508px" y="179.059px" style="font-family:'ArialMT', 'Arial', sans-serif;font-size:20px;fill:#26445f;">1<tspan x="10.147px 21.27px " y="179.059px 179.059px ">10</tspan>010001</text></g></g></svg>