<?xml version="1.0" encoding="UTF-8" standalone="no"?><!DOCTYPE svg PUBLIC "-//W3C//DTD SVG 1.1//EN" "http://www.w3.org/Graphics/SVG/1.1/DTD/svg11.dtd"><svg width="100%" height="100%" viewBox="0 0 76 76" version="1.1" xmlns="http://www.w3.org/2000/svg" xmlns:xlink="http://www.w3.org/1999/xlink" xml:space="preserve" xmlns:serif="http://www.serif.com/" style="fill-rule:evenodd;clip-rule:evenodd;stroke-linejoin:round;stroke-miterlimit:2;"><rect id="Artboard1" x="0" y="0" width="75.061" height="75.028" style="fill:none;"/><path d="M11.536,15.776c-1.123,0.968 -1.424,1.522 -1.219,2.247c0.092,0.354 0.117,0.599 0.036,0.562c-0.258,-0.118 -0.464,0.976 -0.271,1.492c0.089,0.274 0.068,0.683 -0.07,0.922c-0.317,0.546 0.103,1.633 1.121,2.924c1.567,2.008 1.796,2.337 1.79,2.713c-0.004,0.203 0.221,0.519 0.489,0.7c0.553,0.368 0.874,1.906 0.599,2.959c-0.087,0.34 0.002,1.042 0.195,1.558c0.197,0.528 0.475,1.735 0.625,2.708c0.24,1.608 0.309,1.757 0.778,1.902c0.83,0.251 0.207,0.337 -1.321,0.187c-1.996,-0.19 -3.536,0.199 -4.673,1.199c-1.206,1.066 -0.949,1.144 0.474,0.157c1.697,-1.183 5.589,-1.502 5.971,-0.481c0.074,0.199 0.145,0.173 0.277,-0.117c0.242,-0.532 0.525,-0.598 0.683,-0.176c0.07,0.188 0.003,0.401 -0.157,0.474c-0.164,0.061 0.08,0.143 0.533,0.175c0.453,0.031 0.675,0.122 0.503,0.199c-0.183,0.082 -0.239,0.183 -0.138,0.239c0.113,0.052 0.292,-0.042 0.421,-0.197c0.151,-0.204 0.063,-0.332 -0.353,-0.443c-0.541,-0.159 -0.55,-0.183 -0.246,-0.55c0.175,-0.213 0.283,-0.494 0.235,-0.623c-0.048,-0.129 -0.19,-0.116 -0.319,0.039c-0.187,0.217 -0.2,0.182 -0.057,-0.152c0.265,-0.648 -0.002,-1.149 -0.425,-0.777c-0.273,0.235 -0.317,0.225 -0.177,-0.081c0.132,-0.29 0.284,-0.347 0.589,-0.248c0.321,0.108 0.345,-0.008 0.121,-0.606c-0.363,-0.934 0.062,-1.909 0.779,-1.816c0.266,0.034 0.545,-0.043 0.615,-0.177c0.059,-0.129 0.126,-0.02 0.12,0.25c0.004,0.332 0.082,0.397 0.222,0.198c0.299,-0.38 2.592,-1.077 2.799,-0.847c0.079,0.104 0.233,0.087 0.312,-0.023c0.235,-0.302 0.225,0.638 -0.013,1.289c-0.104,0.293 -0.335,0.499 -0.494,0.465c-0.16,-0.033 -0.189,0.031 -0.059,0.129c0.13,0.099 0.105,0.496 -0.055,0.89c-0.168,0.41 -0.171,0.759 -0.01,0.833c0.403,0.183 1.256,-0.47 1.111,-0.857c-0.07,-0.188 0.018,-0.381 0.194,-0.447c0.164,-0.061 0.345,-0.436 0.402,-0.819c0.053,-0.394 0.257,-0.778 0.452,-0.864c0.242,-0.104 0.248,-0.16 0.034,-0.16c-0.19,-0.009 -0.372,-0.102 -0.416,-0.219c-0.044,-0.117 0.095,-0.209 0.31,-0.209c0.325,0.012 0.294,-0.177 -0.14,-1.018c-0.426,-0.817 -0.463,-1.057 -0.181,-1.162c0.434,-0.163 0.971,0.559 0.758,1.026c-0.088,0.194 -0.079,0.324 0.015,0.289c0.094,-0.035 0.137,0.189 0.093,0.5c-0.059,0.45 0,0.535 0.281,0.43c0.188,-0.07 0.379,-0.382 0.423,-0.693c0.044,-0.311 0.176,-0.601 0.305,-0.649c0.153,-0.057 0.211,0.135 0.161,0.501c-0.047,0.339 -0.002,0.496 0.089,0.381c0.099,-0.13 0.193,-0.593 0.208,-1.053c0.019,-0.449 0.182,-0.871 0.37,-0.941c0.176,-0.066 0.251,-0.188 0.157,-0.259c-0.098,-0.084 -0.149,-0.613 -0.098,-1.194c0.062,-0.906 0.122,-0.995 0.381,-0.624c0.172,0.244 0.239,0.459 0.152,0.478c-0.456,0.104 -0.56,0.29 -0.201,0.356c0.496,0.109 0.544,1.562 0.072,1.979c-0.15,0.136 -0.21,0.44 -0.127,0.663c0.088,0.234 0.201,0.286 0.246,0.122c0.046,-0.165 0.229,-0.354 0.405,-0.419c0.282,-0.106 0.114,-3.988 -0.221,-5.133c-0.047,-0.196 -0.027,-0.752 0.067,-1.215l0.159,-0.862l0.222,0.987c0.118,0.531 0.236,1.811 0.269,2.828c0.068,2.542 0.303,3.35 0.918,3.133c0.258,-0.096 0.504,-0.295 0.542,-0.443c0.043,-0.137 0.222,-0.23 0.398,-0.189c0.447,0.087 0.578,0.546 0.136,0.471c-0.195,-0.021 -0.104,0.079 0.206,0.23c0.815,0.391 1.208,-0.452 1.413,-3.016c0.083,-1.1 0.328,-2.449 0.533,-3.007c0.206,-0.558 0.447,-1.665 0.537,-2.461c0.09,-0.796 0.238,-1.546 0.34,-1.665c0.099,-0.13 0.13,-0.69 0.082,-1.247c-0.197,-2.066 -2.253,-3.129 -4.059,-2.093c-0.426,0.254 -0.627,0.289 -0.483,0.101c0.312,-0.451 -1.962,-0.991 -2.807,-0.675c-0.352,0.131 -0.809,0.196 -0.994,0.131c-0.201,-0.072 -0.953,0.169 -1.673,0.532c-0.946,0.474 -1.252,0.549 -1.06,0.276c0.185,-0.256 0.17,-0.331 -0.045,-0.264c-0.517,0.193 -0.334,0.86 0.311,1.154c0.354,0.162 0.861,0.694 1.141,1.191c0.284,0.509 0.728,0.945 1.01,0.986c0.431,0.08 0.409,0.128 -0.142,0.335c-0.571,0.226 -0.606,0.346 -0.356,1.015c0.158,0.422 0.455,1.716 0.679,2.888c0.221,1.162 0.399,2.138 0.403,2.15c0.097,0.258 -0.675,1.59 -1.029,1.789c-3.004,1.658 -7.28,2.094 -8.676,0.865c-0.614,-0.533 -0.779,-2.477 -0.216,-2.474c0.218,0.012 0.564,-0.171 0.751,-0.387c0.262,-0.299 0.601,-0.359 1.331,-0.231c1.073,0.187 1.589,-0.327 0.99,-0.999c-0.603,-0.683 1.482,-4.298 3.022,-5.222c0.632,-0.383 0.799,-0.686 0.371,-0.687c-0.214,0 -0.316,-0.309 -0.374,-1.144c-0.039,-0.64 -0.19,-1.186 -0.317,-1.205c-0.304,-0.06 -0.326,0.737 -0.041,0.965c0.115,0.091 0.103,0.202 -0.026,0.25c-0.141,0.053 -0.372,-0.315 -0.517,-0.809c-0.202,-0.647 -0.372,-0.851 -0.634,-0.766c-0.211,0.079 -0.582,-0.197 -0.917,-0.7c-0.385,-0.565 -0.836,-0.877 -1.363,-0.961c-0.442,-0.075 -0.85,-0.271 -0.915,-0.447c-0.084,-0.223 -0.298,-0.223 -0.666,0.008c-0.349,0.211 -0.587,0.22 -0.657,0.032c-0.263,-0.704 -2.103,-0.296 -3.329,0.751Zm1.789,0.708c-0.131,0.116 -0.185,0.363 -0.115,0.551c0.07,0.188 0,0.321 -0.16,0.287c-0.16,-0.034 -0.252,0.041 -0.204,0.17c0.136,0.364 0.699,0.26 1.323,-0.254c0.315,-0.265 0.665,-0.436 0.767,-0.38c0.108,0.039 0.076,0.132 -0.077,0.189c-0.152,0.057 -0.23,0.206 -0.182,0.335c0.127,0.34 0.755,0.052 0.752,-0.348c0.009,-0.191 0.222,-0.016 0.474,0.371c0.251,0.387 0.486,0.621 0.534,0.536c0.044,-0.097 0.439,-0.044 0.877,0.127c0.438,0.17 0.584,0.169 0.325,0.012c-0.576,-0.36 -0.509,-0.719 0.053,-0.395c0.813,0.458 0.49,1.168 -0.363,0.818c-0.636,-0.27 -0.726,-0.263 -0.599,0.077c0.079,0.211 0.25,0.348 0.379,0.299c0.129,-0.048 0.283,0.042 0.34,0.194c0.079,0.211 0.009,0.238 -0.249,0.12c-0.403,-0.183 -0.972,0.19 -0.841,0.542c0.044,0.117 0.449,0.019 0.912,-0.207c0.946,-0.475 1.55,-0.54 1.477,-0.165c-0.071,0.347 0.394,0.16 0.836,-0.339c0.289,-0.336 0.356,-0.334 0.356,-0.013c-0.012,0.218 -0.135,0.425 -0.301,0.447c-0.161,0.033 -0.21,0.225 -0.103,0.439c0.091,0.207 0.049,0.49 -0.089,0.622c-0.173,0.145 -0.274,0.089 -0.271,-0.153c0.009,-0.404 -0.813,-0.886 -1.235,-0.728c-0.317,0.119 -0.091,0.756 0.281,0.751c0.158,-0.006 0.418,0.258 0.584,0.597c0.179,0.334 0.204,0.579 0.06,0.553c-0.132,-0.031 -0.305,-0.207 -0.375,-0.395c-0.07,-0.188 -0.302,-0.342 -0.532,-0.349c-0.214,-0.001 -0.453,-0.139 -0.51,-0.291c-0.21,-0.563 -2.07,0.4 -2.003,1.043c0.044,0.439 -0.052,0.541 -0.547,0.539c-0.389,-0.001 -0.588,-0.141 -0.594,-0.406c0.007,-0.27 -0.124,-0.368 -0.382,-0.272c-0.211,0.079 -0.289,0.229 -0.158,0.327c0.13,0.098 0.064,0.243 -0.136,0.318c-0.199,0.075 -0.425,-0.028 -0.499,-0.228c-0.079,-0.211 -0.287,-0.267 -0.521,-0.139c-0.252,0.148 -0.409,0.086 -0.458,-0.19c-0.048,-0.236 -0.312,-0.405 -0.601,-0.39c-0.605,0.026 -1.09,-0.448 -0.81,-0.807c0.118,-0.151 0.178,-0.133 0.136,0.042c-0.06,0.304 0.712,0.403 1.128,0.154c0.481,-0.287 0.838,-0.26 0.838,0.061c0.007,0.198 0.249,0.415 0.552,0.475c0.647,0.119 0.593,-0.382 -0.068,-0.683c-0.306,-0.14 -0.293,-0.211 0.012,-0.325c0.223,-0.084 0.443,-0.032 0.491,0.097c0.053,0.14 0.183,0.132 0.3,-0.019c0.137,-0.171 0.19,-0.138 0.138,0.082c-0.037,0.188 0.111,0.44 0.334,0.571c0.223,0.13 0.363,0.399 0.331,0.598c-0.05,0.259 0.027,0.217 0.221,-0.123c0.276,-0.478 0.267,-0.501 -0.241,-0.645c-0.312,-0.084 -0.408,-0.195 -0.243,-0.257c0.164,-0.061 0.211,-0.186 0.101,-0.265c-0.114,-0.091 0.063,-0.224 0.381,-0.303c0.539,-0.135 0.552,-0.206 0.159,-0.648c-0.553,-0.622 -0.575,-0.681 -0.282,-0.79c0.141,-0.053 0.449,0.126 0.689,0.411c0.603,0.683 0.663,0.594 0.292,-0.364c-0.201,-0.5 -0.378,-0.687 -0.466,-0.494c-0.088,0.193 -0.414,0.181 -0.872,-0.008c-0.632,-0.259 -0.707,-0.244 -0.579,0.096c0.123,0.329 0.049,0.383 -0.396,0.335c-0.678,-0.094 -0.83,-0.037 -0.72,0.256c0.048,0.129 0.252,0.174 0.439,0.103c0.2,-0.074 0.431,0.08 0.528,0.338c0.127,0.34 0.023,0.526 -0.411,0.689c-0.446,0.166 -0.635,0.09 -0.796,-0.305c-0.171,-0.457 -0.227,-0.463 -0.355,-0.054c-0.128,0.409 -0.21,0.44 -0.698,0.208c-0.451,-0.206 -0.507,-0.319 -0.32,-0.643c0.145,-0.255 0.286,-0.307 0.453,-0.183c0.146,0.106 0.421,0.124 0.62,0.049c0.328,-0.123 0.307,-0.181 -0.206,-0.444c-0.55,-0.289 -0.554,-0.301 -0.037,-0.348c0.565,-0.064 0.584,-0.512 0.021,-0.623c-0.447,-0.086 0.434,-1.058 0.957,-1.053c0.27,0.006 0.32,0.068 0.154,0.197Zm-1.007,6.568c0.06,0.445 0.478,0.169 0.588,-0.394c0.074,-0.375 0.112,-0.416 0.189,-0.138c0.183,0.667 0.546,1.28 0.549,0.932c0.009,-0.191 0.163,-0.315 0.351,-0.279c0.183,0.025 0.108,-0.067 -0.151,-0.224c-0.259,-0.157 -0.422,-0.377 -0.363,-0.506c0.059,-0.129 0.274,-0.089 0.491,0.097c0.212,0.175 0.456,0.217 0.558,0.099c0.334,-0.432 1.487,-0.423 1.479,0.022c0,0.214 0.063,0.31 0.154,0.196c0.163,-0.208 0.859,0.615 0.741,0.873c-0.032,0.092 -0.11,0.028 -0.171,-0.137c-0.057,-0.152 -0.196,-0.167 -0.314,-0.016c-0.117,0.151 -0.196,0.154 -0.182,0.015c0.015,-0.14 -0.316,-0.417 -0.739,-0.62c-0.638,-0.31 -0.717,-0.307 -0.42,0.023c0.306,0.354 0.287,0.374 -0.17,0.225c-0.309,-0.112 -0.482,-0.074 -0.429,0.067c0.052,0.14 0.224,0.277 0.383,0.311c0.172,0.029 0.28,0.176 0.254,0.319c-0.065,0.292 -0.801,0.327 -1.409,0.059c-0.23,-0.114 -0.491,-0.097 -0.594,0.022c-0.091,0.114 -0.22,0.055 -0.294,-0.144c-0.092,-0.246 -0.248,-0.269 -0.49,-0.058c-0.192,0.166 -0.318,0.186 -0.259,0.057c0.054,-0.14 -0.07,-0.401 -0.276,-0.592c-0.31,-0.258 -0.289,-0.346 0.045,-0.418c0.24,-0.036 0.457,0.043 0.479,0.209Zm4.95,-0.889c0.21,0.563 -0.202,0.784 -0.681,0.362c-0.319,-0.282 -0.359,-0.388 -0.139,-0.336c0.172,0.029 0.271,-0.061 0.219,-0.202c-0.053,-0.141 0.031,-0.239 0.191,-0.205c0.159,0.034 0.344,0.205 0.41,0.381Zm9.37,-3.799c0.874,-0.166 2.339,0.463 2.331,1.014c0,0.214 0.119,0.424 0.246,0.443c0.144,0.026 0.258,-0.097 0.267,-0.287c0.005,-0.203 0.069,-0.173 0.173,0.069c0.25,0.561 0.658,0.329 0.695,-0.394c0.033,-0.52 0.062,-0.478 0.207,0.23c0.104,0.456 0.346,0.927 0.541,1.055c0.494,0.283 0.984,-0.194 0.647,-0.63c-0.224,-0.277 -0.205,-0.298 0.1,-0.091c0.289,0.2 0.344,0.099 0.256,-0.497c-0.167,-1.194 -0.136,-1.326 0.131,-0.65c0.39,0.937 -0.222,2.409 -0.935,2.221c-0.296,-0.076 -0.895,-0.213 -1.33,-0.304c-0.436,-0.092 -0.825,-0.24 -0.865,-0.346c-0.039,-0.105 -0.365,-0.331 -0.728,-0.516c-0.359,-0.174 -0.706,-0.458 -0.772,-0.634c-0.061,-0.164 -0.267,-0.248 -0.466,-0.174c-0.188,0.071 -0.391,0.026 -0.44,-0.103c-0.048,-0.129 -0.346,-0.138 -0.674,-0.015c-0.317,0.119 -0.626,0.114 -0.67,-0.003c-0.048,-0.129 0.059,-0.236 0.245,-0.239c0.186,-0.003 0.655,-0.071 1.041,-0.149Zm-0.573,1.579c-0.094,0.249 -0.103,0.439 -0.033,0.413c0.071,-0.026 0.154,0.304 0.193,0.73c0.058,0.727 0.083,0.758 0.448,0.341c0.328,-0.377 0.391,-0.387 0.392,-0.026c-0.003,0.241 0.061,0.378 0.146,0.319c0.142,-0.12 0.334,0.036 0.457,0.364c0.024,0.098 -0.049,0.513 -0.169,0.906c-0.212,0.721 -0.224,0.725 -0.381,0.196c-0.094,-0.286 -0.053,-0.676 0.103,-0.868c0.201,-0.249 0.078,-0.256 -0.409,-0.021c-0.491,0.224 -0.619,0.419 -0.471,0.671c0.114,0.198 0.124,0.476 0.026,0.606c-0.11,0.135 -0.238,0.115 -0.291,-0.025c-0.052,-0.141 -0.187,-0.144 -0.285,-0.014c-0.11,0.135 -0.09,0.368 0.046,0.518c0.136,0.149 0.149,0.399 0.039,0.533c-0.113,0.163 -0.177,0.134 -0.133,-0.07c0.037,-0.188 -0.042,-0.292 -0.171,-0.244c-0.399,0.15 -0.37,0.727 0.037,0.815c0.232,0.048 0.297,0.117 0.168,0.165c-0.375,0.14 -1.191,-0.183 -1.206,-0.472c-0.005,-0.158 -0.153,-0.945 -0.321,-1.752c-0.299,-1.372 -0.3,-1.412 0.081,-0.498c0.553,1.371 1.458,0.645 1.472,-1.179c0.007,-1.019 -0.134,-1.18 -0.652,-0.813c-0.44,0.325 -0.437,0.298 -0.016,-0.221c0.625,-0.795 1.149,-1.005 0.93,-0.374Zm-11.564,5.943c0.389,0.108 0.479,0.208 0.256,0.292c-0.258,0.096 -0.247,0.159 0.059,0.299c0.661,0.301 0.562,0.538 -0.215,0.535c-0.911,-0.007 -1.278,-0.271 -1.075,-0.802c0.196,-0.514 0.254,-0.536 0.975,-0.324Zm16.167,-3.934c0.121,0.824 -0.35,2.176 -0.575,1.646c-0.133,-0.285 -0.154,-0.09 -0.192,1.596c-0.017,0.742 -0.055,0.783 -0.393,0.414c-0.359,-0.387 -0.359,-0.387 -0.203,0.103c0.101,0.27 0.117,0.598 0.058,0.727c-0.054,0.141 -0.095,0.316 -0.072,0.415c0.357,1.417 0.278,2.637 -0.145,2.434c-0.802,-0.355 -0.026,-5.967 0.827,-6.046c0.217,-0.027 0.208,-0.158 -0.033,-0.803c-0.126,-0.301 -0.181,-0.307 -0.243,-0.043c-0.111,0.563 -0.936,0.965 -1.41,0.701c-0.222,-0.13 -0.364,-0.331 -0.313,-0.444c0.052,-0.113 0.139,-0.092 0.192,0.048c0.048,0.129 0.327,-0.269 0.614,-0.898c0.638,-1.402 1.672,-1.321 1.888,0.15Zm0.616,0.719c0.041,0.359 0.18,0.481 0.454,0.392c0.302,-0.087 0.304,-0.047 -0.018,0.167c-0.22,0.162 -0.494,0.572 -0.609,0.909c-0.164,0.49 -0.276,0.585 -0.52,0.396c-0.192,-0.156 -0.186,-0.212 0.001,-0.175c0.176,0.041 0.342,-0.408 0.391,-1.028c0.088,-1.197 0.224,-1.475 0.301,-0.661Z" style="fill:#26445f;fill-rule:nonzero;"/><path d="M5.371,21.21c-1.644,1.645 -2.106,6.204 -1.295,12.841c0.293,2.391 0.582,5.024 0.647,5.842c0.066,0.818 0.21,1.526 0.307,1.57c0.31,0.151 -0.037,-4.319 -0.779,-10.126c-0.134,-0.966 -0.161,-2.039 -0.069,-2.367c0.086,-0.34 0.103,-0.761 0.037,-0.937c-0.171,-0.457 0.463,-3.516 0.91,-4.432c0.195,-0.407 0.313,-0.879 0.251,-1.043c-0.294,-0.786 1.978,-1.97 3.26,-1.688c0.396,0.093 0.685,0.078 0.641,-0.039c-0.405,-1.012 -2.751,-0.776 -3.91,0.379Z" style="fill:#26445f;fill-rule:nonzero;"/><path d="M21.665,19.476c0.136,0.47 0.262,0.557 0.473,0.371c0.211,-0.186 0.426,-0.039 0.792,0.546c0.262,0.45 0.484,0.648 0.469,0.466c-0.007,-0.412 -1.493,-2.169 -1.74,-2.077c-0.093,0.035 -0.086,0.34 0.006,0.694Z" style="fill:#26445f;fill-rule:nonzero;"/><path d="M50.505,10.642c-0.027,0.144 -0.342,0.302 -0.693,0.366c-0.366,0.057 -0.586,0.219 -0.529,0.372c0.052,0.141 -0.173,0.359 -0.49,0.477c-0.751,0.281 -1.237,0.877 -2.009,2.423c-0.436,0.872 -0.752,1.244 -1.12,1.261c-0.328,0.016 -0.409,0.087 -0.237,0.223c0.468,0.36 1.156,-0.125 1.75,-1.256c1.079,-2.049 3.044,-3.372 4.739,-3.204c0.879,0.099 1.538,-0.214 1.38,-0.636c-0.049,-0.129 -0.267,-0.141 -0.481,-0.034c-0.946,0.474 -1.405,0.499 -0.981,0.059c0.329,-0.337 0.296,-0.351 -0.212,-0.067c-0.335,0.178 -0.587,0.219 -0.568,0.091c0.024,-0.115 -0.08,-0.25 -0.224,-0.277c-0.155,-0.022 -0.299,0.059 -0.325,0.202Z" style="fill:#26445f;fill-rule:nonzero;"/><path d="M8.081,26.562c-1.899,1.499 -3.05,5.607 -1.832,6.542c0.131,0.098 0.135,0.217 0.018,0.261c-0.446,0.167 -0.285,1.671 0.382,3.668c0.717,2.166 0.795,4.236 0.181,4.773c-0.162,0.141 -0.312,0.705 -0.331,1.26c-0.02,0.556 -0.163,1.211 -0.32,1.47c-0.277,0.438 -0.257,0.458 0.289,0.414c0.818,-0.065 0.621,0.41 -0.306,0.756c-0.962,0.36 -1.451,0.088 -2.11,-1.136c-0.276,-0.525 -0.784,-1.097 -1.116,-1.268c-0.331,-0.17 -0.841,-0.461 -1.125,-0.649c-0.6,-0.39 -0.528,0.091 0.086,0.623c0.287,0.268 0.316,0.417 0.093,0.607c-0.51,0.459 -0.018,1.131 1.128,1.585c0.599,0.243 1.159,0.596 1.229,0.783c0.206,0.552 1.876,0.261 2.777,-0.477c0.45,-0.369 0.937,-0.604 1.157,-0.553c0.822,0.161 0.753,-0.094 -0.159,-0.676c-1.03,-0.644 -1.077,-0.84 -0.66,-2.801c0.042,-0.244 0.054,-0.783 0.015,-1.21c-0.064,-0.564 0.232,-0.06 1.063,1.876c0.701,1.623 0.96,2.101 0.658,1.225c-0.76,-2.283 -0.39,-2.368 0.421,-0.091c0.398,1.135 0.903,2.27 1.118,2.524c0.29,0.346 0.303,0.488 0.045,0.585c-0.34,0.127 -0.586,-0.209 -0.824,-1.096c-0.12,-0.463 -0.774,-0.352 -0.883,0.143c-0.029,0.171 0.247,0.589 0.609,0.949c0.501,0.481 0.672,0.832 0.67,1.327c-0.002,0.496 0.117,0.705 0.442,0.824c0.474,0.158 0.872,0.864 0.453,0.781c-0.144,-0.027 -0.1,0.197 0.077,0.492c0.341,0.555 0.817,0.791 0.96,0.457c0.055,-0.101 -0.11,-0.293 -0.349,-0.431c-0.239,-0.138 -0.412,-0.314 -0.363,-0.399c0.098,-0.238 2.103,0.403 2.213,0.696c0.057,0.153 0.271,0.26 0.469,0.253c0.225,-0.004 0.258,-0.097 0.107,-0.214c-0.469,-0.36 0.188,-0.391 0.708,-0.038c0.272,0.193 0.555,0.234 0.626,0.101c0.07,-0.134 0.1,-0.091 0.067,0.108c-0.071,0.455 1.689,1.12 2.572,0.977c0.591,-0.1 0.723,0.037 1.693,1.774c2.03,3.64 4.461,4.884 6.041,3.103c0.175,-0.213 0.665,-0.583 1.072,-0.816c0.415,-0.249 1.133,-0.691 1.601,-1.013c1.218,-0.817 4.988,-4.861 4.856,-5.213c-0.05,-0.169 0.02,-0.342 0.16,-0.394c0.141,-0.053 0.437,-0.404 0.669,-0.785c0.232,-0.381 0.543,-0.658 0.687,-0.632c0.132,0.031 0.261,-0.231 0.264,-0.58l0.01,-0.618l0.221,0.519c0.109,0.293 0.103,0.563 -0.026,0.611c-0.129,0.048 -0.116,0.404 0.029,0.792c0.145,0.387 0.357,0.668 0.474,0.624c0.106,-0.039 0.34,0.087 0.494,0.284c0.165,0.192 0.457,0.471 0.672,0.617c0.2,0.14 0.765,0.651 1.242,1.141c1.008,1.013 1.547,1.454 2.368,1.896c0.319,0.174 0.647,0.479 0.726,0.691c0.075,0.199 0.274,0.445 0.447,0.515c0.161,0.073 0.678,0.562 1.132,1.06c0.458,0.511 1.151,1.148 1.541,1.403c4.905,3.247 7.122,4.383 6.788,3.492c-0.048,-0.129 -0.414,-0.393 -0.821,-0.589c-3.116,-1.536 -6.281,-3.815 -8.465,-6.114c-0.169,-0.164 -0.659,-0.582 -1.108,-0.923c-0.452,-0.352 -1.359,-1.096 -2.025,-1.663c-0.671,-0.578 -1.522,-1.316 -1.915,-1.65c-0.666,-0.567 -0.735,-0.715 -0.943,-2.308c-0.303,-2.241 -0.023,-2.707 2.112,-3.505c2.862,-1.071 4.347,-0.462 7.092,2.91c1.324,1.644 2.795,2.752 4.76,3.609l1.131,0.486l-0.8,-0.744c-0.991,-0.899 -1.066,-1.099 -0.778,-1.902c0.122,-0.353 0.346,-0.972 0.494,-1.361c0.807,-2.241 1.221,-3.814 1.465,-5.523c0.156,-1.048 0.387,-2.11 0.525,-2.349c0.399,-0.684 4.773,-5.329 4.951,-5.248c0.301,0.128 1.046,4.048 0.966,5.014c-0.095,0.998 0.098,1.301 0.563,0.899c0.66,-0.594 -0.365,-5.947 -1.23,-6.399c-0.299,-0.156 -0.702,-0.661 -0.901,-1.121c-0.187,-0.465 -0.437,-0.813 -0.543,-0.773c-0.105,0.039 -0.261,-0.09 -0.331,-0.277c-0.074,-0.2 -0.014,-0.396 0.115,-0.445c0.141,-0.052 0.132,-0.183 -0.003,-0.293c-0.13,-0.098 -0.481,-0.823 -0.755,-1.589c-0.542,-1.522 -0.937,-1.576 -0.681,-0.107c0.073,0.481 0.044,0.906 -0.073,0.95c-0.129,0.049 -0.125,0.167 0.006,0.266c0.13,0.098 0.038,0.173 -0.216,0.174c-0.325,-0.012 -0.375,-0.074 -0.205,-0.298c0.242,-0.318 0.32,-0.253 -1.955,-1.689c-2.872,-1.814 -6.885,-5.715 -7.078,-6.874c-0.131,-0.78 -0.15,-0.759 -0.712,1.136l-0.498,1.671l1.116,0.839c0.615,0.465 1.518,1.412 2.018,2.107c0.501,0.695 1.078,1.415 1.291,1.59c0.49,0.418 0.606,0.763 0.141,0.415c-0.26,-0.197 -0.323,-0.187 -0.252,0.041c0.066,0.176 0.015,0.288 -0.117,0.258c-0.128,-0.02 -0.378,0.635 -0.534,1.469c-0.196,1.05 -0.497,1.711 -0.965,2.14c-0.391,0.347 -0.845,1.172 -1.033,1.884c-0.406,1.489 -1.353,3.14 -2.346,4.06l-0.702,0.663l-0.688,-0.732c-0.956,-1.019 -2.418,-1.89 -2.653,-1.588c-0.129,0.155 -0.17,0.117 -0.138,-0.082c0.094,-0.463 -2.146,-1.484 -2.434,-1.109c-0.129,0.155 -0.185,0.149 -0.148,-0.038c0.03,-0.172 -0.074,-0.307 -0.244,-0.297c-0.175,-0.001 0.097,-0.491 0.594,-1.091c2.992,-3.62 3.127,-3.938 2.047,-5.004c-0.449,-0.448 -1.144,-1.271 -1.537,-1.819c-0.404,-0.545 -0.815,-0.966 -0.921,-0.926c-0.105,0.039 -0.198,-0.1 -0.198,-0.314c0.001,-0.214 -0.26,-0.625 -0.584,-0.918c-0.335,-0.289 -0.893,-0.923 -1.263,-1.413c-0.371,-0.49 -0.867,-0.959 -1.1,-1.046c-0.241,-0.071 -0.367,-0.05 -0.288,0.054c0.079,0.104 0.145,0.601 0.163,1.116c0.022,0.807 -0.108,1.391 -0.746,3.154c-0.079,0.216 -0.054,0.354 0.044,0.331c0.106,-0.04 0.053,0.141 -0.116,0.404c-0.157,0.26 -0.234,0.556 -0.166,0.664c0.392,0.549 0.152,1.802 -0.518,2.655c-0.353,0.452 -0.348,0.464 0.092,0.139c0.359,-0.255 0.484,-0.208 0.655,0.25c0.21,0.563 -0.451,0.904 -0.961,0.506c-0.114,-0.091 -0.478,-0.062 -0.794,0.056c-0.329,0.123 -0.563,0.104 -0.537,-0.04c0.063,-0.331 -2.407,-0.035 -2.829,0.337c-0.173,0.145 -0.201,0.356 -0.071,0.454c0.13,0.098 0.146,0.213 0.029,0.257c-0.61,0.228 0.342,1.343 1.063,1.233c0.497,-0.065 0.601,-0.037 0.305,0.1c-0.807,0.382 -1.253,1.298 -0.49,1.013c0.34,-0.127 0.637,-0.332 0.657,-0.46c0.07,-0.347 1.516,-0.915 2.016,-0.794c0.38,0.085 0.399,0.172 0.109,0.614c-0.246,0.413 -0.243,0.492 0.038,0.387c0.54,-0.202 0.848,-1.2 0.594,-1.88c-0.25,-0.669 -0.537,-0.722 -1.643,-0.282c-0.422,0.158 -0.789,0.215 -0.828,0.11c-0.106,-0.282 0.543,-0.765 0.806,-0.596c0.126,0.086 0.365,0.117 0.534,0.068c0.169,-0.05 0.529,-0.158 0.796,-0.231c0.279,-0.078 0.471,-0.029 0.444,0.114c-0.022,0.156 0.136,0.364 0.366,0.479c0.23,0.114 0.475,0.304 0.542,0.412c0.06,0.125 0.259,0.371 0.416,0.54c0.231,0.261 0.152,0.371 -0.402,0.498c-0.381,0.089 -0.478,0.152 -0.217,0.135c0.902,-0.057 0.512,0.583 -0.599,0.972c-0.598,0.224 -1.006,0.457 -0.901,0.524c0.099,0.084 0.009,0.345 -0.196,0.582c-0.218,0.242 -0.35,0.532 -0.302,0.661c0.141,0.375 0.972,-0.083 0.976,-0.539c0,-0.321 0.197,-0.474 0.713,-0.56c0.406,-0.059 0.794,-0.271 0.89,-0.48c0.117,-0.258 0.2,-0.289 0.265,-0.113c0.053,0.141 -0.034,0.374 -0.207,0.519c-0.441,0.392 -0.179,0.842 0.287,0.481c0.227,-0.179 0.603,-0.212 0.877,-0.087c0.838,0.381 1.023,0.125 0.472,-0.632c-0.645,-0.868 -0.65,-0.88 -0.128,-0.701c0.369,0.13 0.403,0.077 0.23,-0.313c-0.279,-0.604 -0.553,-0.515 -0.712,0.24c-0.155,0.766 -0.375,0.822 -0.59,0.14c-0.117,-0.384 -0.026,-0.606 0.307,-0.717c0.533,-0.185 0.158,-1.436 -0.465,-1.564c-0.171,-0.03 -0.344,-0.099 -0.373,-0.141c-0.132,-0.245 0.266,-2.507 0.427,-2.433c0.113,0.051 0.124,0.261 0.029,0.47c-0.096,0.21 -0.137,0.493 -0.084,0.634c0.052,0.14 0.182,-0.122 0.28,-0.573c0.255,-1.072 0.83,-1.929 1.148,-1.687c0.135,0.11 0.13,0.206 -0.005,0.203c-0.347,0.036 -1.188,2.864 -0.907,3.08c0.433,0.333 1.11,-0.321 1.761,-1.728c0.438,-0.939 0.718,-1.298 0.81,-1.052c0.075,0.2 -0.014,0.5 -0.194,0.661c-0.18,0.161 -0.238,0.33 -0.137,0.385c0.113,0.052 0.478,-0.259 0.828,-0.683c0.572,-0.723 0.619,-0.74 0.67,-0.318c0.029,0.257 -0.369,0.873 -0.862,1.379c-1.713,1.71 -2.095,2.335 -1.839,3.055c0.127,0.34 0.926,-0.133 1.207,-0.706c0.095,-0.21 0.004,-0.202 -0.261,0.017c-0.227,0.179 0.043,-0.243 0.584,-0.94c0.558,-0.69 1.197,-1.304 1.438,-1.34c0.287,-0.054 0.346,-0.183 0.164,-0.383c-0.14,-0.161 -0.165,-0.406 -0.055,-0.541c0.098,-0.13 0.251,-0.08 0.33,0.131c0.088,0.235 0.236,0.273 0.376,0.113c0.13,-0.155 -0.008,0.191 -0.312,0.773c-0.586,1.115 -0.767,1.276 -1.041,0.937c-0.203,-0.258 -0.909,0.286 -0.79,0.603c0.044,0.117 0.208,0.163 0.372,0.102c0.164,-0.062 0.032,0.228 -0.286,0.628c-0.326,0.416 -0.72,1.045 -0.881,1.399c-0.169,0.371 -0.418,0.705 -0.559,0.758c-0.141,0.052 -0.134,0.25 0.027,0.431c0.157,0.168 0.231,0.475 0.171,0.671c-0.072,0.201 -0.084,0.633 -0.02,0.984c0.24,1.355 0.252,2.032 0.041,2.111c-0.129,0.048 -0.145,0.148 -0.035,0.227c0.098,0.084 -0.143,0.227 -0.54,0.309c-0.767,0.166 -1.189,-0.318 -0.678,-0.776c0.173,-0.145 0.268,-0.355 0.225,-0.472c-0.044,-0.117 -0.232,-0.154 -0.431,-0.08c-0.188,0.071 -0.344,0.155 -0.33,0.191c0.013,0.035 0.059,0.445 0.088,0.916c0.047,0.517 0.134,0.752 0.233,0.622c0.103,-0.119 0.214,-0.107 0.262,0.022c0.123,0.328 -0.411,0.903 -1.339,1.424c-0.42,0.237 -0.87,0.713 -0.981,1.062c-0.218,0.63 -0.566,0.987 -0.459,0.452c0.093,-0.503 -0.79,-1.041 -1.365,-0.826c-0.81,0.302 -1.39,0.252 -1.535,-0.135c-0.07,-0.188 -0.011,-0.317 0.144,-0.295c0.407,0.089 0.448,-0.555 0.028,-0.746c-0.257,-0.117 -0.323,-0.079 -0.24,0.144c0.066,0.176 -0.06,0.303 -0.274,0.303c-0.27,-0.006 -0.298,0.098 -0.108,0.321c0.227,0.249 0.191,0.33 -0.163,0.315c-1.241,-0.03 -1.398,0.015 -0.8,0.219c0.401,0.144 0.534,0.322 0.487,0.66c-0.06,0.411 -0.135,0.425 -0.636,0.051c-0.606,-0.442 -0.62,-1.159 -0.016,-1.438c0.877,-0.408 0.965,-0.495 0.757,-0.658c-0.286,-0.227 -0.18,-0.267 0.692,-0.259c0.467,-0.001 0.651,-0.083 0.589,-0.247c-0.052,-0.141 -0.325,-0.226 -0.609,-0.2c-0.285,0.026 -0.579,-0.117 -0.658,-0.329c-0.103,-0.309 -0.072,-0.334 0.185,-0.149c0.24,0.178 0.338,0.154 0.393,-0.093c0.042,-0.244 0.252,-0.255 0.712,-0.026c0.529,0.27 0.621,0.409 0.496,0.79c-0.198,0.543 0.281,0.858 1.059,0.687c0.351,-0.064 0.414,-0.181 0.228,-0.392c-0.141,-0.162 -0.333,-0.21 -0.424,-0.096c-0.091,0.114 -0.224,0.044 -0.298,-0.156c-0.075,-0.199 0.028,-0.425 0.215,-0.495c0.2,-0.075 0.405,0.009 0.475,0.197c0.228,0.61 1.655,0.063 2.049,-0.78c0.191,-0.419 0.439,-0.792 0.568,-0.841c0.434,-0.162 0.043,-0.564 -0.564,-0.578c-0.567,-0.015 -0.588,-0.034 -0.135,-0.217c0.27,-0.101 0.638,-0.118 0.831,-0.03c0.226,0.103 0.367,0.05 0.408,-0.126c0.022,-0.155 -0.239,-0.245 -0.598,-0.204c-0.399,0.042 -0.624,-0.06 -0.592,-0.26c0.052,-0.22 -0.091,-0.207 -0.438,0.044c-0.274,0.196 -0.659,0.42 -0.846,0.49c-0.247,0.092 -0.193,0.166 0.212,0.282c0.344,0.098 0.48,0.248 0.363,0.399c-0.254,0.322 -1.059,0.316 -0.995,-0.016c0.104,-0.507 -0.614,0.003 -0.854,0.614c-0.197,0.475 -0.339,0.595 -0.664,0.476c-0.49,-0.165 -1.123,-1.68 -0.76,-1.816c0.141,-0.052 0.149,-0.176 0.018,-0.274c-0.13,-0.098 0.006,-0.27 0.311,-0.384c0.458,-0.171 1.102,-1.201 0.975,-1.541c-0.018,-0.047 -0.369,-0.022 -0.787,0.04c-0.985,0.155 -1.009,0.164 -0.93,0.375c0.035,0.094 0.148,0.145 0.242,0.11c0.309,-0.102 0.898,0.078 0.986,0.313c0.044,0.117 -0.346,0.183 -0.875,0.127c-0.525,-0.045 -0.938,-0.184 -0.907,-0.316c0.087,-0.447 -0.438,-0.063 -0.731,0.514c-0.368,0.766 -0.776,0.999 -0.869,0.499c-0.046,-0.264 -0.276,-0.378 -0.598,-0.311c-0.386,0.077 -0.464,0.227 -0.312,0.598c0.113,0.265 0.097,0.579 -0.046,0.699c-0.184,0.149 -0.334,-0.036 -0.502,-0.628c-0.203,-0.686 -0.157,-0.85 0.244,-0.921c0.264,-0.045 0.574,-0.254 0.697,-0.461c0.16,-0.287 0.252,-0.255 0.397,0.133c0.101,0.269 0.29,0.453 0.419,0.405c0.129,-0.049 0.191,-0.206 0.138,-0.346c-0.052,-0.141 0.055,-0.248 0.236,-0.262c0.187,-0.003 0.607,-0.201 0.943,-0.447c0.363,-0.282 0.822,-0.414 1.2,-0.368c0.538,0.079 0.557,0.059 0.1,-0.198c-0.361,-0.213 -0.732,-0.168 -1.433,0.175c-0.677,0.333 -1.123,0.393 -1.624,0.233c-0.538,-0.187 -0.608,-0.267 -0.315,-0.377c0.246,-0.092 0.301,-0.34 0.16,-0.715c-0.158,-0.423 -0.112,-0.587 0.186,-0.578c0.428,0.001 1.025,-1.333 0.708,-1.575c-0.307,-0.247 -0.622,0.019 -0.482,0.394c0.075,0.199 0.021,0.34 -0.135,0.318c-0.363,-0.078 -1.328,2.275 -1.063,2.591c0.132,0.138 0.074,0.306 -0.125,0.381c-0.516,0.193 -0.569,-0.269 -0.14,-1.125c0.373,-0.754 0.371,-1.369 -0.005,-1.228c-0.305,0.114 -1.138,2.177 -0.912,2.28c0.101,0.056 -0.005,0.523 -0.252,1.043c-0.547,1.182 -0.414,2.576 0.275,2.773c0.264,0.062 0.444,0.221 0.381,0.339c-0.052,0.113 0.08,0.143 0.28,0.069c0.199,-0.075 0.386,-0.292 0.395,-0.482c0.009,-0.191 0.06,-0.089 0.087,0.235c0.047,0.41 0.174,0.536 0.444,0.435c0.2,-0.074 0.408,-0.018 0.456,0.111c0.053,0.14 0.176,0.148 0.274,0.017c0.098,-0.13 0.414,-0.181 0.689,-0.124c0.435,0.092 0.428,0.108 -0.073,0.162c-0.324,0.027 -0.546,0.15 -0.498,0.279c0.044,0.117 -0.058,0.343 -0.227,0.5c-0.185,0.149 -0.292,0.149 -0.258,-0.011c0.034,-0.159 -0.33,-0.451 -0.816,-0.644c-0.901,-0.372 -1.749,-0.135 -1.726,0.499c0.004,0.225 0.097,0.258 0.214,0.107c0.144,-0.188 0.375,0.18 0.77,1.236c0.636,1.701 2.067,2.918 3.456,2.947c0.4,-0.003 1.127,0.046 1.608,0.08c0.819,0.081 1.213,-0.079 2.312,-0.932c0.216,-0.174 0.185,-0.042 -0.069,0.28c-0.242,0.318 -0.955,0.772 -1.565,1c-1.415,0.543 -1.31,0.931 0.167,0.553c1.382,-0.343 3.295,-2.343 3.597,-3.753c0.112,-0.523 0.74,-0.704 0.738,-0.209c-0.005,0.738 0.538,-0.027 0.694,-0.968l0.134,-0.893l2.239,-0.663c3.663,-1.076 5.003,-0.962 8.886,0.768c1.112,0.507 2.14,1.754 2.334,2.845c0.117,0.705 -0.896,3.397 -1.33,3.559c-0.363,0.136 -1.423,-1.874 -1.232,-2.294c0.088,-0.193 0.122,-0.46 0.069,-0.601c-0.052,-0.14 -0.14,-0.054 -0.183,0.189c-0.14,0.628 -1.464,-0.054 -1.506,-0.773c-0.018,-0.368 -0.141,-0.483 -0.375,-0.395c-0.188,0.07 -0.56,-0.138 -0.825,-0.454c-0.27,-0.327 -0.948,-0.675 -1.527,-0.793c-0.575,-0.106 -1.234,-0.367 -1.455,-0.565c-0.454,-0.392 -0.956,-0.338 -0.691,0.084c0.101,0.163 -0.032,0.307 -0.327,0.377c-0.276,0.049 -0.84,0.22 -1.251,0.374c-0.426,0.146 -0.989,0.143 -1.309,-0.032c-0.31,-0.151 -0.633,-0.191 -0.724,-0.077c-0.261,0.338 -0.012,0.647 0.41,0.489c0.739,-0.277 -0.795,2.664 -2.905,5.566c-2.387,3.273 -3.445,4.377 -5.706,5.945c-0.925,0.64 -1.916,1.385 -2.204,1.653c-2.14,1.964 -6.478,-4.022 -8.304,-11.442c-0.322,-1.324 -0.571,-2.528 -0.533,-2.676c0.026,-0.144 -0.146,-0.427 -0.368,-0.625c-0.298,-0.262 -0.369,-0.45 -0.22,-0.626c0.11,-0.135 0.067,-0.426 -0.079,-0.639c-0.151,-0.225 -0.199,-0.461 -0.107,-0.535c0.432,-0.349 -0.254,-2.004 -0.934,-2.285c-1.831,-0.746 -5.835,0.845 -6.329,2.528c-0.46,1.522 -0.663,-3.095 -0.292,-6.43c0.09,-0.796 0.039,-1.539 -0.096,-1.649c-0.15,-0.118 -0.133,-0.178 0.055,-0.141c0.203,0.044 0.212,-0.146 0.035,-0.548c-0.37,-0.811 0.396,-1.766 2.059,-2.575c0.92,-0.438 1.053,-0.474 0.496,-0.105c-0.647,0.415 -0.54,0.415 0.727,-0.058c0.809,-0.303 1.497,-0.681 1.531,-0.841c0.037,-0.187 -0.07,-0.187 -0.281,-0.001c-0.281,0.252 -0.396,0.121 -0.76,-0.853c-0.781,-2.088 -1.432,-2.112 -3.925,-0.123Zm26.499,-1.728c0.077,0.239 0.044,0.76 -0.091,1.185c-0.14,0.413 -0.173,0.933 -0.105,1.149c0.144,0.387 -0.239,1.293 -0.497,1.175c-0.081,-0.037 -0.005,-0.8 0.164,-1.706c0.329,-1.768 0.244,-2.03 -0.244,-0.724c-0.231,0.634 -0.369,0.766 -0.609,0.588c-0.203,-0.151 -0.186,-0.211 0.03,-0.171c0.203,0.044 0.274,-0.089 0.19,-0.312c-0.32,-0.857 0.033,-2.058 0.533,-1.831c0.258,0.118 0.542,0.413 0.629,0.647Zm11.437,-1.563c0.741,0.873 0.848,1.087 0.654,1.427c-0.123,0.207 -0.274,0.303 -0.318,0.186c-0.572,-1.244 -0.9,-1.87 -1.237,-2.305c-0.714,-0.91 -0.021,-0.38 0.901,0.692Zm-9.468,3.715c0.152,0.157 0.143,0.348 0.002,0.401c-0.152,0.057 -0.428,0.427 -0.632,0.811c-0.461,0.948 -0.795,0.271 -0.347,-0.713c0.353,-0.773 0.625,-0.902 0.977,-0.499Zm-24.411,11.136c-0.744,0.372 -1.6,0.906 -1.895,1.191c-0.295,0.284 -0.562,0.464 -0.584,0.405c-0.14,-0.375 1.18,-1.35 2.409,-1.783l1.416,-0.503l-1.346,0.69Zm16.394,-5.864c0.048,0.129 -0.042,0.283 -0.182,0.336c-0.153,0.057 -0.404,0.351 -0.564,0.638c-0.263,0.513 -0.267,0.502 -0.212,-0.174c0.05,-0.688 0.773,-1.292 0.958,-0.8Zm-13.858,5.959c0.215,0.04 -0.154,0.231 -0.904,0.445c-1.777,0.504 -2.06,0.463 -0.656,-0.076c0.641,-0.253 1.34,-0.421 1.56,-0.369Zm-3.557,1.825c0.09,0.274 -0.865,2.69 -0.966,2.421c-0.088,-0.235 0.619,-2.492 0.795,-2.558c0.059,-0.022 0.136,0.043 0.171,0.137Zm3.099,-0.798c-1.359,0.909 -2.421,2.43 -2.754,3.972c-0.396,1.766 -0.689,1.769 -0.384,0.01c0.327,-1.914 1.635,-3.674 3.129,-4.219l0.821,-0.307l-0.812,0.544Zm-11.002,4.623c0.118,-0.044 0.144,0.24 0.056,0.648c-0.192,0.847 -0.587,0.861 -0.899,0.028c-0.171,-0.457 -0.117,-0.598 0.204,-0.598c0.23,0.008 0.522,-0.034 0.639,-0.078Zm12.274,-4.617c0.114,0.091 -0.021,0.195 -0.305,0.221c-0.296,0.03 -0.474,0.163 -0.412,0.328c0.057,0.152 -0.027,0.25 -0.187,0.216c-0.159,-0.033 -0.243,0.065 -0.19,0.206c0.052,0.14 -0.031,0.238 -0.191,0.205c-0.16,-0.034 -0.688,0.805 -1.182,1.846c-0.916,1.947 -1.145,2.193 -0.804,0.889c0.625,-2.44 2.407,-4.578 3.271,-3.911Zm8.359,-0.533c0.484,0.221 0.505,0.279 0.228,0.717c-0.398,0.617 -0.621,0.701 -0.783,0.266c-0.075,-0.199 -0.014,-0.395 0.126,-0.448c0.141,-0.053 0.138,-0.239 -0.002,-0.4c-0.347,-0.392 -0.214,-0.428 0.431,-0.135Zm25.853,-9.067c0.338,0.689 0.996,0.804 0.973,0.17c-0.047,-1.52 3.243,1.128 4.266,3.433c0.168,0.378 0.272,0.406 0.425,0.135c0.116,-0.19 0.31,-0.316 0.422,-0.265c0.101,0.056 -0.139,0.413 -0.546,0.793c-0.406,0.379 -1.251,1.23 -1.878,1.879c-0.622,0.66 -1.11,1.07 -1.084,0.927c0.192,-0.954 -1.752,0.642 -2.351,1.936c-0.196,0.407 -0.295,0.391 -0.79,-0.146c-0.318,-0.349 -0.698,-0.542 -0.849,-0.445c-0.146,0.108 -0.198,0.114 -0.126,0.02c0.259,-0.31 -0.1,-0.804 -0.784,-1.097c-0.379,-0.153 -0.771,-0.166 -0.877,-0.02c-0.194,0.233 -0.011,-0.53 0.321,-1.323c0.091,-0.221 0.267,-0.715 0.392,-1.096c0.345,-1.079 1.788,-3.263 2.281,-3.447c0.352,-0.132 0.361,-0.323 0.1,-0.947c-0.185,-0.426 -0.409,-0.703 -0.481,-0.609c-0.072,0.094 -0.198,0.007 -0.277,-0.204c-0.263,-0.704 0.507,-0.431 0.863,0.306Zm-21.62,9.41c0.22,0.479 0.205,0.511 -0.262,0.298c-0.274,-0.124 -0.606,-0.188 -0.735,-0.139c-0.117,0.043 -0.199,-0.033 -0.173,-0.177c0.084,-0.419 -0.706,-0.564 -1.001,-0.173c-0.208,0.265 -0.144,0.294 0.295,0.144c0.446,-0.167 0.531,-0.119 0.423,0.202c-0.183,0.51 0.12,0.678 0.542,0.306c0.212,-0.186 0.3,-0.166 0.253,0.066c-0.095,0.463 -0.601,0.612 -1.11,0.321c-0.239,-0.138 -0.625,-0.167 -0.883,-0.071c-0.739,0.277 -0.709,-0.644 0.044,-1.099c0.896,-0.536 2.281,-0.372 2.607,0.322Zm-14.576,5.719c0.018,0.368 0.048,0.343 0.206,-0.131c0.319,-1.042 0.829,-1.072 1.118,-0.084c0.32,1.071 0.204,2.906 -0.194,3.055c-0.962,0.36 -2.396,-1.685 -1.734,-2.454c0.205,-0.237 0.305,-0.542 0.209,-0.693c-0.109,-0.147 -0.053,-0.248 0.107,-0.214c0.148,0.038 0.287,0.267 0.288,0.521Zm17.216,-5.062c0.266,0.034 0.699,0.046 0.96,0.029c0.265,-0.006 0.456,0.11 0.414,0.286c-0.029,0.172 -0.258,0.311 -0.504,0.296c-0.242,-0.003 -0.606,0.026 -0.818,0.065c-0.201,0.035 -0.475,-0.09 -0.589,-0.288c-0.261,-0.411 -0.157,-0.49 0.537,-0.388Zm15.967,-2.107l1.121,0.209l-0.798,0.405c-0.685,0.35 -0.804,0.354 -0.742,-0.017c0.045,-0.31 -0.108,-0.467 -0.546,-0.531c-0.343,-0.059 -0.52,-0.139 -0.391,-0.188c0.124,-0.06 0.737,0.005 1.356,0.122Zm-0.826,1.94c0.187,-0.645 0.459,-0.667 0.487,-0.022c0.032,0.55 1.297,1.895 1.672,1.755c0.094,-0.035 0.251,0.134 0.343,0.38c0.092,0.246 0.278,0.457 0.397,0.453c0.135,0.003 0.239,0.245 0.241,0.538c0.007,0.412 -0.167,0.304 -0.848,-0.552c-0.718,-0.881 -1.293,-1.241 -3.191,-1.989c-1.27,-0.501 -2.299,-0.998 -2.276,-1.114c0.024,-0.116 0.72,0.065 1.541,0.4c1.291,0.52 1.525,0.539 1.634,0.151Zm-15.912,4.721c0.193,0.516 -0.651,0.832 -1.506,0.55l-0.774,-0.246l1.087,-0.312c0.721,-0.217 1.11,-0.215 1.193,0.008Zm18.63,-5.283c-0.246,0.306 -0.23,0.42 0.121,0.61c0.494,0.283 0.916,1.088 0.634,1.194c-0.117,0.043 -0.269,-0.114 -0.365,-0.332c-0.083,-0.223 -0.38,-0.553 -0.676,-0.737c-0.665,-0.419 -0.724,-0.611 -0.263,-0.917c0.545,-0.365 0.915,-0.236 0.549,0.182Z" style="fill:#26445f;fill-rule:nonzero;"/><path d="M49.476,34.842c0.03,0.296 0.26,0.624 0.518,0.742c0.242,0.11 0.495,0.323 0.548,0.463c0.048,0.129 0.186,0.212 0.303,0.168c0.235,-0.088 -0.739,-1.583 -1.162,-1.785c-0.145,-0.066 -0.238,0.115 -0.207,0.412Z" style="fill:#26445f;fill-rule:nonzero;"/><path d="M33.175,17.109c1.083,0.464 5.932,1.272 5.982,1.012c0.026,-0.143 -0.309,-0.325 -0.736,-0.393c-0.438,-0.063 -1.311,-0.218 -1.946,-0.342c-0.635,-0.123 -1.551,-0.249 -2.036,-0.295c-0.485,-0.046 -0.985,-0.166 -1.115,-0.265c-0.131,-0.098 -0.358,-0.133 -0.51,-0.076c-0.141,0.052 0.016,0.221 0.361,0.359Z" style="fill:#26445f;fill-rule:nonzero;"/><path d="M51,13.318c-0.238,0.543 -0.711,0.747 -1.194,0.526c-0.355,-0.161 -1.178,0.641 -1.037,1.017c0.096,0.258 0.419,0.084 0.602,-0.319c0.089,-0.194 0.244,-0.279 0.374,-0.18c0.115,0.091 -0.136,0.492 -0.546,0.899c-0.521,0.503 -0.726,0.954 -0.669,1.428c0.058,0.513 -0.01,0.618 -0.254,0.429c-0.343,-0.273 -0.341,0.983 0.004,1.549c0.261,0.411 -0.866,0.151 -1.411,-0.341c-0.242,-0.217 -0.325,-0.226 -0.188,-0.037c0.138,0.189 0.218,0.44 0.162,0.541c-0.146,0.323 0.17,1.167 0.392,1.084c0.106,-0.04 0.197,-0.261 0.209,-0.479c-0.004,-0.226 0.103,-0.44 0.22,-0.484c0.129,-0.048 0.211,0.028 0.18,0.16c-0.026,0.144 0.172,0.137 0.456,0.003c0.697,-0.354 0.701,-0.342 0.171,-0.652c-0.409,-0.235 -0.41,-0.274 -0.01,-0.277c0.337,0.008 0.386,-0.077 0.175,-0.319c-0.227,-0.25 -0.191,-0.33 0.146,-0.323c0.254,-0.001 0.402,-0.07 0.344,-0.155c-0.246,-0.336 -0.128,-1.343 0.165,-1.452c0.176,-0.066 0.314,-0.305 0.322,-0.535c0.003,-0.67 0.624,-0.367 0.701,0.339c0.053,0.462 0.148,0.573 0.333,0.424c0.142,-0.12 0.163,-0.529 0.034,-0.909c-0.146,-0.426 -0.116,-0.705 0.089,-0.728c0.52,-0.074 1.11,-0.643 0.946,-0.902c-0.088,-0.128 0.027,-0.358 0.251,-0.509c0.291,-0.189 0.415,-0.142 0.409,0.128c-0.003,0.563 0.495,0.858 0.891,0.523c0.629,-0.57 0.083,-1.101 -1.011,-0.986c-0.829,0.069 -1.09,0.194 -1.256,0.537Z" style="fill:#26445f;fill-rule:nonzero;"/><path d="M55.507,12.14c0.34,0.194 0.366,0.264 0.12,0.356c-0.211,0.079 -0.128,0.195 0.256,0.399c0.299,0.156 0.598,0.419 0.663,0.595c0.066,0.176 0.156,0.236 0.195,0.127c0.166,-0.343 -0.843,-1.717 -1.259,-1.722c-0.337,-0.007 -0.336,0.032 0.025,0.245Z" style="fill:#26445f;fill-rule:nonzero;"/><path d="M34.772,20.056c-0.035,0.227 0.051,0.636 0.196,0.916c0.272,0.513 0.26,0.518 -0.568,0.413c-1.886,-0.217 -1.454,0.223 0.894,0.923c2.692,0.798 4.044,1.696 4.56,3.041l0.331,0.812l0.096,-0.744c0.134,-0.893 -0.547,-1.855 -1.81,-2.586c-0.441,-0.25 -0.845,-0.58 -0.902,-0.732c-0.053,-0.141 -0.501,-0.482 -0.974,-0.746c-0.837,-0.449 -0.849,-0.445 -0.261,0.017c0.829,0.68 0.864,0.881 0.092,0.568c-0.471,-0.185 -0.658,-0.436 -0.733,-0.957c-0.122,-0.863 -0.788,-1.537 -0.921,-0.925Z" style="fill:#26445f;fill-rule:nonzero;"/><path d="M54.458,13.482c0.198,0.46 0.579,0.799 1.138,1.005c0.983,0.341 1.157,0.664 2.761,5.025c0.664,1.81 1.248,3.906 1.507,5.387c0.377,2.186 0.691,2.991 0.948,2.426c0.558,-1.225 -3.368,-14.118 -4.034,-13.253c-0.221,0.269 -2.269,-0.81 -2.198,-1.157c0.029,-0.172 -0.05,-0.276 -0.167,-0.232c-0.129,0.048 -0.116,0.404 0.045,0.799Z" style="fill:#26445f;fill-rule:nonzero;"/><path d="M52.72,15.843c-0.011,0.793 0.398,1.135 0.735,0.608c0.2,-0.289 0.193,-0.594 0.002,-0.817c-0.372,-0.422 -0.732,-0.314 -0.737,0.209Z" style="fill:#26445f;fill-rule:nonzero;"/><path d="M53.876,16.36c0.053,0.141 0.394,0.268 0.775,0.285c0.374,0.034 0.931,0.308 1.231,0.61c0.289,0.306 0.614,0.533 0.696,0.502c0.235,-0.088 -0.436,-0.987 -0.958,-1.273c-0.25,-0.134 -0.413,-0.354 -0.354,-0.483c0.059,-0.129 -0.039,-0.106 -0.22,0.056c-0.169,0.156 -0.433,0.201 -0.567,0.091c-0.318,-0.242 -0.717,-0.093 -0.603,0.212Z" style="fill:#26445f;fill-rule:nonzero;"/><path d="M52.426,19.778c-0.296,3.213 0.544,7.352 1.412,7.027c0.211,-0.079 0.074,-0.696 -0.476,-2.202c-0.73,-1.987 -0.758,-2.204 -0.491,-4.35c0.154,-1.234 0.24,-2.363 0.187,-2.504c-0.237,-0.633 -0.453,0.076 -0.632,2.029Z" style="fill:#26445f;fill-rule:nonzero;"/><path d="M41.422,27.611c0.216,0.253 0.186,0.318 -0.108,0.281c-0.216,-0.04 0.06,0.125 0.615,0.358c1.413,0.595 2.424,2.37 1.544,2.699c-0.539,0.202 -1.935,-1.028 -2.21,-1.941c-0.14,-0.483 -0.407,-0.945 -0.6,-1.033c-0.5,-0.228 -0.104,1.51 0.593,2.586c0.322,0.468 0.742,1.127 0.944,1.452c0.231,0.369 0.47,0.507 0.639,0.35c0.142,-0.12 0.47,-0.029 0.709,0.216c0.444,0.436 0.451,0.42 0.368,-0.445c-0.11,-1.082 0.254,-1.432 0.842,-0.823c0.446,0.475 0.073,-0.308 -0.889,-1.914c-0.346,-0.566 -0.134,-0.966 0.314,-0.626c0.114,0.091 0.6,-0.077 1.081,-0.364c0.811,-0.477 0.878,-0.476 1.199,0.06c0.219,0.372 0.217,0.293 -0.009,-0.238l-0.342,-0.808l-1.198,0.515c-1.015,0.433 -1.236,0.449 -1.515,0.099c-0.178,-0.228 -0.399,-0.319 -0.49,-0.205c-0.103,0.119 -0.21,0.119 -0.258,-0.01c-0.044,-0.117 -0.403,-0.291 -0.799,-0.383c-0.671,-0.15 -0.706,-0.137 -0.43,0.174Z" style="fill:#26445f;fill-rule:nonzero;"/><path d="M5.142,42.263c-0.006,0.377 -0.06,0.411 -0.317,0.226c-0.244,-0.189 -0.309,-0.112 -0.286,0.307c0.012,0.317 -0.069,0.601 -0.187,0.645c-0.129,0.049 -0.183,0.189 -0.135,0.318c0.167,0.446 0.862,-0.055 1.19,-0.859c0.33,-0.833 0.313,-1.307 -0.05,-1.171c-0.118,0.043 -0.216,0.281 -0.215,0.534Z" style="fill:#26445f;fill-rule:nonzero;"/><path d="M57.67,22.965c0.155,0.45 0.177,0.722 0.057,0.58c-0.132,-0.138 -0.299,-0.156 -0.39,-0.041c-0.091,0.114 0.024,0.352 0.253,0.534c0.318,0.242 0.436,0.558 0.456,1.22c0.038,0.815 0.051,0.85 0.21,0.309c0.145,-0.469 0.061,-1.159 -0.169,-1.488c-0.025,-0.031 -0.041,-0.359 -0.039,-0.748c0.005,-0.416 -0.136,-0.791 -0.328,-0.947c-0.24,-0.177 -0.253,0.001 -0.05,0.581Z" style="fill:#26445f;fill-rule:nonzero;"/><path d="M26.053,35.178c-0.292,0.47 -0.283,0.493 0.278,0.564c0.494,0.07 0.532,0.029 0.276,-0.263c-0.206,-0.231 -0.186,-0.319 0.046,-0.272c0.204,0.045 0.278,-0.077 0.195,-0.3c-0.167,-0.446 -0.378,-0.367 -0.795,0.271Z" style="fill:#26445f;fill-rule:nonzero;"/><path d="M29.016,34.912c0.17,0.097 0.252,0.28 0.198,0.421c-0.059,0.129 0.036,0.133 0.211,0.028c0.321,-0.214 0.534,-0.681 0.44,-0.967c-0.03,-0.082 -0.306,-0.033 -0.607,0.093c-0.378,0.168 -0.46,0.306 -0.242,0.425Z" style="fill:#26445f;fill-rule:nonzero;"/><path d="M45.543,29.439c0.578,0.76 1.054,1.104 0.892,0.67c-0.221,-0.627 -0.796,-1.307 -1.031,-1.22c-0.117,0.044 -0.065,0.292 0.139,0.55Z" style="fill:#26445f;fill-rule:nonzero;"/><path d="M19.135,41.456c0.035,0.094 -0.04,0.215 -0.181,0.268c-0.129,0.048 -0.397,0.403 -0.574,0.79c-0.176,0.387 -0.224,0.579 -0.095,0.423c0.129,-0.155 0.271,-0.168 0.324,-0.027c0.048,0.129 -0.014,0.286 -0.155,0.338c-0.129,0.048 -0.397,0.403 -0.578,0.778l-0.327,0.698l1.116,-0.592c3.757,-1.967 3.588,-1.917 4.168,-1.225c0.365,0.439 0.543,0.88 0.55,1.399c0.012,0.424 0.074,0.842 0.142,0.95c0.155,0.237 0.182,0.989 0.064,1.996c-0.053,0.501 0.029,0.791 0.238,0.887c0.194,0.088 0.633,0.833 0.984,1.664c0.367,0.839 0.739,1.583 0.832,1.655c0.734,0.567 -1.154,3.026 -2.425,3.167c-0.94,0.097 -1.006,0.135 -0.583,0.338c0.565,0.257 1.642,-0.079 2.39,-0.76c0.573,-0.509 1.772,-2.843 1.397,-2.702c-0.117,0.044 -0.415,-0.501 -0.659,-1.225c-0.24,-0.713 -0.705,-1.635 -1.04,-2.031c-0.564,-0.685 -0.567,-0.764 -0.127,-1.196c0.367,-0.378 0.382,-0.517 0.074,-0.697c-0.291,-0.171 -0.441,-0.57 -0.566,-1.62c-0.134,-1.073 -0.262,-1.453 -0.553,-1.585c-0.193,-0.088 -0.436,-0.345 -0.511,-0.544c-0.452,-1.209 -1.763,-1.962 -2.873,-1.64c-0.604,0.172 -1.067,0.399 -1.032,0.493Zm2.235,-0.101c0.735,0.033 -0.567,0.52 -1.525,0.571c-0.593,0.021 -0.586,0.005 0.16,-0.287c0.458,-0.172 1.068,-0.293 1.365,-0.284Z" style="fill:#26445f;fill-rule:nonzero;"/><path d="M30.129,37.959c-0.456,0.532 -0.452,0.543 0.064,0.35c0.298,-0.098 0.497,-0.279 0.458,-0.385c-0.044,-0.117 0.236,-0.262 0.614,-0.323c0.374,-0.073 0.572,-0.187 0.427,-0.253c-0.428,-0.215 -1.085,0.031 -1.563,0.611Z" style="fill:#26445f;fill-rule:nonzero;"/><path d="M32.736,37.064c0.04,0.106 0.416,0.326 0.831,0.505c0.917,0.379 1.063,-0.197 0.144,-0.615c-0.612,-0.279 -1.102,-0.23 -0.975,0.11Z" style="fill:#26445f;fill-rule:nonzero;"/><path d="M60.991,27.446c-0.087,0.233 -0.105,0.507 -0.037,0.615c0.074,0.093 0.109,0.401 0.103,0.67c-0.018,0.275 0.051,0.53 0.164,0.581c0.318,0.135 0.725,-0.779 0.468,-1.071c-0.132,-0.138 -0.159,-0.355 -0.061,-0.485c0.22,-0.27 -0.009,-0.92 -0.291,-0.814c-0.105,0.039 -0.271,0.275 -0.346,0.504Z" style="fill:#26445f;fill-rule:nonzero;"/><path d="M18.477,44.524c-0.534,0.253 -0.927,0.56 -0.879,0.689c0.053,0.141 0.333,0.103 0.639,-0.078c0.307,-0.182 0.578,-0.243 0.622,-0.126c0.039,0.106 0.727,-0.058 1.528,-0.384l1.449,-0.596l-1.343,0.342l-1.343,0.342l1.211,-0.587c0.67,-0.317 1.293,-0.51 1.387,-0.438c0.334,0.249 1.086,-0.206 0.95,-0.57c-0.14,-0.375 -0.853,-0.135 -4.221,1.406Z" style="fill:#26445f;fill-rule:nonzero;"/><path d="M59.324,30.57c-0.04,0.75 0.261,1.52 0.492,1.313c0.119,-0.111 0.098,-0.558 -0.061,-1.02c-0.319,-0.924 -0.408,-0.984 -0.431,-0.293Z" style="fill:#26445f;fill-rule:nonzero;"/><path d="M60.824,29.968c-0.111,0.31 0.096,1.008 0.661,2.267c0.457,1.006 0.759,1.923 0.668,2.037c-0.091,0.114 -0.081,0.391 0.01,0.598c0.104,0.242 0.164,0.26 0.168,0.057c0.013,-0.539 0.495,-0.572 0.55,-0.031c0.037,0.347 0.546,0.745 1.644,1.284c0.888,0.443 1.578,0.894 1.559,1.021c-0.058,0.276 1.847,1.007 1.957,0.766c0.033,-0.093 -0.306,-0.354 -0.758,-0.599c-3.765,-1.949 -3.921,-2.117 -5.166,-5.409c-0.518,-1.384 -0.678,-2.1 -0.517,-2.241c0.154,-0.124 0.088,-0.193 -0.193,-0.195c-0.23,-0.007 -0.5,0.201 -0.583,0.445Z" style="fill:#26445f;fill-rule:nonzero;"/><path d="M26.072,46.991c0.617,0.291 0.938,0.291 1.202,0.032c0.326,-0.309 0.313,-0.344 -0.21,-0.242c-0.323,0.067 -0.691,-0.023 -0.831,-0.184c-0.137,-0.15 -0.428,-0.214 -0.639,-0.135c-0.282,0.105 -0.178,0.24 0.478,0.529Z" style="fill:#26445f;fill-rule:nonzero;"/><path d="M60.315,34.291c0.044,0.117 0.165,0.192 0.283,0.148c0.105,-0.039 0.255,0.146 0.347,0.392c0.085,0.262 0.234,0.447 0.328,0.412c0.098,-0.023 0.158,-0.113 0.136,-0.171c-0.026,-0.071 -0.118,-0.317 -0.21,-0.563c-0.092,-0.247 -0.341,-0.448 -0.567,-0.444c-0.219,-0.011 -0.365,0.097 -0.317,0.226Z" style="fill:#26445f;fill-rule:nonzero;"/><path d="M43.508,41.232c2.119,3.447 2.307,3.63 2.202,2.025c-0.086,-1.265 -0.134,-1.394 -0.454,-1.141c-0.135,0.104 -0.672,-0.19 -1.197,-0.662c-0.779,-0.725 -0.871,-0.757 -0.551,-0.222Z" style="fill:#26445f;fill-rule:nonzero;"/><path d="M59.443,36.142c0.166,0.338 0.275,0.806 0.223,1.026c-0.056,0.315 0.009,0.344 0.265,0.101c0.204,-0.17 0.377,-0.315 0.412,-0.328c0.024,-0.008 -0.14,-0.375 -0.354,-0.803c-0.229,-0.436 -0.506,-0.747 -0.635,-0.699c-0.118,0.044 -0.078,0.364 0.089,0.703Z" style="fill:#26445f;fill-rule:nonzero;"/><path d="M23.258,50.05c-0.15,0.778 0.36,2.499 0.7,2.372c0.188,-0.07 0.251,-0.187 0.157,-0.259c-0.098,-0.084 -0.269,-0.648 -0.378,-1.263c-0.21,-1.205 -0.358,-1.457 -0.479,-0.85Z" style="fill:#26445f;fill-rule:nonzero;"/><path d="M61.782,36.069c0.11,0.293 0.057,0.794 -0.118,1.114c-0.208,0.372 -0.215,0.856 -0.013,1.395c0.214,0.536 0.354,0.697 0.397,0.454c0.06,-0.304 0.415,-0.356 1.643,-0.254c0.855,0.068 1.535,0.242 1.509,0.385c-0.027,0.144 0.291,0.279 0.712,0.296c0.42,0.016 1.071,0.147 1.461,0.296c0.438,0.17 0.664,0.166 0.594,-0.022c-0.171,-0.457 -0.905,-1.025 -1.199,-0.916c-0.14,0.053 -0.856,-0.107 -1.606,-0.362c-0.734,-0.247 -1.455,-0.351 -1.609,-0.227c-0.138,0.132 -0.667,0.076 -1.174,-0.136l-0.902,-0.371l0.874,-0.488c0.486,-0.275 0.748,-0.467 0.58,-0.417c-0.173,0.038 -0.377,-0.113 -0.46,-0.336c-0.084,-0.223 -0.321,-0.535 -0.52,-0.675c-0.293,-0.211 -0.315,-0.163 -0.169,0.264Z" style="fill:#26445f;fill-rule:nonzero;"/><path d="M26.939,50.024c-0.242,0.531 -0.018,1.023 0.38,0.874c0.399,-0.15 0.437,-0.765 0.061,-1.053c-0.203,-0.151 -0.309,-0.112 -0.441,0.179Z" style="fill:#26445f;fill-rule:nonzero;"/><path d="M36.819,47.264c0.105,0.282 0.336,0.543 0.496,0.577c0.172,0.029 0.309,0.219 0.312,0.405c-0.009,0.19 0.25,0.454 0.548,0.57c0.313,0.124 0.863,0.627 1.229,1.105c0.754,1.015 3.436,3.502 3.896,3.624c1.036,0.268 0.746,-0.292 -0.465,-0.922c-0.546,-0.277 -1.011,-0.558 -1.038,-0.628c-0.167,-0.446 -3.564,-4.096 -4.292,-4.613c-0.749,-0.535 -0.849,-0.552 -0.686,-0.118Z" style="fill:#26445f;fill-rule:nonzero;"/><path d="M40.779,46.412c0.458,0.403 0.862,0.159 0.651,-0.404c-0.07,-0.188 -0.338,-0.262 -0.608,-0.161c-0.399,0.15 -0.408,0.233 -0.043,0.565Z" style="fill:#26445f;fill-rule:nonzero;"/><path d="M58.501,39.703c-0.044,0.204 0.205,0.619 0.538,0.936c0.41,0.381 0.521,0.607 0.345,0.673c-0.505,0.188 0.321,0.321 1.439,0.237c0.609,-0.054 1.51,-0.324 1.988,-0.583c0.556,-0.302 0.921,-0.398 0.978,-0.246c0.053,0.141 0.304,0.168 0.562,0.071c0.258,-0.096 0.509,-0.07 0.552,0.048c0.049,0.129 0.494,0.283 0.995,0.336c0.502,0.053 1.205,0.218 1.567,0.364c1.734,0.702 6.841,0.129 6.521,-0.728c-0.096,-0.258 -0.313,-0.23 -0.931,0.121c-0.582,0.338 -0.783,0.373 -0.74,0.13c0.047,-0.232 -0.195,-0.235 -0.758,-0.024c-0.446,0.167 -0.919,0.223 -1.05,0.125c-0.13,-0.098 -0.486,-0.085 -0.78,0.024c-0.305,0.114 -1.249,-0.014 -2.115,-0.292c-2.189,-0.705 -4.011,-0.893 -5.008,-0.52c-1.197,0.447 -3.236,0.18 -3.676,-0.497c-0.243,-0.364 -0.384,-0.418 -0.427,-0.175Z" style="fill:#26445f;fill-rule:nonzero;"/><path d="M40.232,48.381c0.329,0.559 0.907,0.423 0.696,-0.14c-0.109,-0.293 -0.337,-0.435 -0.548,-0.356c-0.223,0.083 -0.278,0.291 -0.148,0.496Z" style="fill:#26445f;fill-rule:nonzero;"/><path d="M42.665,48.702c0.5,0.227 0.608,0.588 0.174,0.536c-0.195,-0.02 -0.09,0.047 0.231,0.154c0.594,0.193 1.072,-0.066 0.676,-0.373c-0.118,-0.103 -0.118,-0.21 -0.013,-0.249c0.599,-0.224 -0.107,-0.682 -0.726,-0.477c-0.521,0.181 -0.616,0.284 -0.342,0.409Z" style="fill:#26445f;fill-rule:nonzero;"/><path d="M41.744,49.528c-0.25,0.227 -0.405,0.525 -0.353,0.666c0.053,0.141 0.164,0.153 0.255,0.039c0.091,-0.115 0.254,-0.109 0.354,0.015c0.099,0.123 0.206,-0.091 0.232,-0.488c0.029,-0.386 0.034,-0.695 0.01,-0.686c-0.03,0.024 -0.249,0.227 -0.498,0.454Z" style="fill:#26445f;fill-rule:nonzero;"/><path d="M52.118,51.13c-0.044,0.097 0.263,0.49 0.685,0.867c0.41,0.381 0.812,0.846 0.873,1.011c0.066,0.176 0.526,0.726 1.035,1.23c0.51,0.505 1.034,1.192 1.173,1.527c0.139,0.336 0.309,0.54 0.381,0.446c0.175,-0.212 0.924,0.47 1.148,1.069c0.097,0.258 0.3,0.409 0.451,0.312c0.26,-0.164 0.339,-0.06 0.787,0.923c0.099,0.23 0.253,0.32 0.344,0.205c0.209,-0.265 0.857,0.683 0.887,1.3c0.018,0.368 0.05,0.383 0.138,0.082c0.08,-0.324 0.162,-0.354 0.406,-0.165c0.172,0.136 0.21,0.309 0.075,0.413c-0.154,0.125 0.043,0.439 0.588,0.93c0.869,0.785 1.351,0.859 1.097,0.179c-0.12,-0.357 -0.101,-0.377 0.212,-0.147c0.611,0.454 0.19,-0.352 -0.468,-0.895l-0.56,-0.459l0.259,0.692l0.252,0.709l-0.594,-0.407c-0.325,-0.226 -0.509,-0.505 -0.423,-0.631c0.087,-0.126 0.094,-0.356 0.009,-0.511c-0.084,-0.156 -0.2,-0.393 -0.26,-0.518c-0.076,-0.132 -0.218,-0.119 -0.336,0.032c-0.124,0.167 -0.189,0.138 -0.152,-0.05c0.041,-0.176 -0.748,-1.071 -1.749,-1.994c-2.361,-2.165 -3.893,-3.759 -4.669,-4.832c-0.672,-0.939 -1.464,-1.592 -1.589,-1.318Z" style="fill:#26445f;fill-rule:nonzero;"/><path d="M48.774,53.451c0.323,0.186 0.293,0.318 -0.137,0.706c-0.546,0.472 -0.371,0.941 0.263,0.704c0.411,-0.154 0.539,0.119 0.304,0.635c-0.132,0.29 -0.038,0.255 0.348,-0.144c0.466,-0.468 0.464,-0.547 0.031,-0.667c-0.497,-0.148 -0.659,-0.903 -0.236,-1.061c0.445,-0.167 0.104,-0.507 -0.437,-0.452c-0.438,0.044 -0.46,0.092 -0.136,0.279Z" style="fill:#26445f;fill-rule:nonzero;"/><path d="M50.211,55.614c0.157,0.169 0.312,0.405 0.36,0.534c0.049,0.129 0.175,0.108 0.285,-0.026c0.105,-0.147 0.343,-0.155 0.514,-0.019c0.172,0.137 0.362,0.146 0.414,0.033c0.047,-0.125 -0.161,-0.395 -0.466,-0.602c-0.667,-0.459 -1.524,-0.392 -1.107,0.08Z" style="fill:#26445f;fill-rule:nonzero;"/><path d="M70.565,39.35c0.103,0.135 0.744,0.31 1.424,0.376c0.685,0.079 1.41,0.195 1.611,0.267c0.574,0.213 0.63,0.112 0.285,-0.561c-0.179,-0.335 -0.363,-0.72 -0.439,-0.852c-0.06,-0.125 -0.304,-0.168 -0.535,-0.108c-0.228,0.072 -0.704,0.156 -1.063,0.197c-0.348,0.037 -0.075,0.122 0.609,0.2c0.875,0.087 1.145,0.2 0.874,0.369c-0.213,0.146 -0.969,0.162 -1.679,0.053c-0.709,-0.11 -1.208,-0.084 -1.087,0.059Z" style="fill:#26445f;fill-rule:nonzero;"/><path d="M67.938,40.372c0.053,0.141 1.783,0.296 1.853,0.163c0.172,-0.399 -0.625,-0.742 -1.212,-0.523c-0.375,0.14 -0.663,0.301 -0.641,0.36Z" style="fill:#26445f;fill-rule:nonzero;"/><g id="code"><g transform="matrix(0.757427,0,0,0.757427,-0.105238,-61.0726)"><text x="0.508px" y="96.442px" style="font-family:'ArialMT', 'Arial', sans-serif;font-size:20px;fill:#26445f;">01000101<tspan x="88.008px " y="96.442px ">1</tspan></text><text x="0.508px" y="117.096px" style="font-family:'ArialMT', 'Arial', sans-serif;font-size:20px;fill:#26445f;">1000101<tspan x="76.885px 88.008px " y="117.096px 117.096px ">10</tspan></text><text x="0.508px" y="137.751px" style="font-family:'ArialMT', 'Arial', sans-serif;font-size:20px;fill:#26445f;">001001001</text><text x="0.508px" y="158.405px" style="font-family:'ArialMT', 'Arial', sans-serif;font-size:20px;fill:#26445f;">000101<tspan x="65.762px 75.401px 86.524px " y="158.405px 158.405px 158.405px ">110</tspan></text><text x="0.508px" y="179.059px" style="font-family:'ArialMT', 'Arial', sans-serif;font-size:20px;fill:#26445f;">1<tspan x="10.147px 21.27px " y="179.059px 179.059px ">10</tspan>010001</text></g></g></svg>